<mxfile host="app.diagrams.net" modified="2023-11-06T00:42:10.128Z" agent="Mozilla/5.0 (Macintosh; Intel Mac OS X 10.15; rv:109.0) Gecko/20100101 Firefox/119.0" etag="7US-xkfSMAjDeS7o4yie" version="22.0.8" type="device">
  <diagram name="Page-1" id="0Fy6ffbwvWfcE-OzpnfV">
    <mxGraphModel dx="2440" dy="982" grid="1" gridSize="10" guides="1" tooltips="1" connect="1" arrows="1" fold="1" page="1" pageScale="1" pageWidth="850" pageHeight="1100" math="0" shadow="0">
      <root>
        <mxCell id="0" />
        <mxCell id="1" parent="0" />
        <mxCell id="9hIp2UkibbLVLMk4ZTwH-8" style="edgeStyle=orthogonalEdgeStyle;rounded=0;orthogonalLoop=1;jettySize=auto;html=1;exitX=0.5;exitY=1;exitDx=0;exitDy=0;entryX=0.5;entryY=0;entryDx=0;entryDy=0;" edge="1" parent="1" source="9hIp2UkibbLVLMk4ZTwH-1" target="9hIp2UkibbLVLMk4ZTwH-2">
          <mxGeometry relative="1" as="geometry" />
        </mxCell>
        <mxCell id="9hIp2UkibbLVLMk4ZTwH-1" value="Login" style="rounded=0;whiteSpace=wrap;html=1;" vertex="1" parent="1">
          <mxGeometry x="350" y="110" width="120" height="60" as="geometry" />
        </mxCell>
        <mxCell id="9hIp2UkibbLVLMk4ZTwH-9" style="edgeStyle=orthogonalEdgeStyle;rounded=0;orthogonalLoop=1;jettySize=auto;html=1;exitX=0.5;exitY=1;exitDx=0;exitDy=0;entryX=0.5;entryY=0;entryDx=0;entryDy=0;" edge="1" parent="1" source="9hIp2UkibbLVLMk4ZTwH-2" target="9hIp2UkibbLVLMk4ZTwH-6">
          <mxGeometry relative="1" as="geometry" />
        </mxCell>
        <mxCell id="9hIp2UkibbLVLMk4ZTwH-10" style="edgeStyle=orthogonalEdgeStyle;rounded=0;orthogonalLoop=1;jettySize=auto;html=1;exitX=0.5;exitY=1;exitDx=0;exitDy=0;entryX=0.5;entryY=0;entryDx=0;entryDy=0;" edge="1" parent="1" source="9hIp2UkibbLVLMk4ZTwH-2" target="9hIp2UkibbLVLMk4ZTwH-7">
          <mxGeometry relative="1" as="geometry" />
        </mxCell>
        <mxCell id="9hIp2UkibbLVLMk4ZTwH-11" style="edgeStyle=orthogonalEdgeStyle;rounded=0;orthogonalLoop=1;jettySize=auto;html=1;exitX=0.5;exitY=1;exitDx=0;exitDy=0;entryX=0.5;entryY=0;entryDx=0;entryDy=0;" edge="1" parent="1" source="9hIp2UkibbLVLMk4ZTwH-2" target="9hIp2UkibbLVLMk4ZTwH-4">
          <mxGeometry relative="1" as="geometry" />
        </mxCell>
        <mxCell id="9hIp2UkibbLVLMk4ZTwH-12" style="edgeStyle=orthogonalEdgeStyle;rounded=0;orthogonalLoop=1;jettySize=auto;html=1;exitX=0.5;exitY=1;exitDx=0;exitDy=0;entryX=0.5;entryY=0;entryDx=0;entryDy=0;" edge="1" parent="1" source="9hIp2UkibbLVLMk4ZTwH-2" target="9hIp2UkibbLVLMk4ZTwH-5">
          <mxGeometry relative="1" as="geometry" />
        </mxCell>
        <mxCell id="9hIp2UkibbLVLMk4ZTwH-2" value="Welcome Page" style="rounded=0;whiteSpace=wrap;html=1;" vertex="1" parent="1">
          <mxGeometry x="350" y="210" width="120" height="60" as="geometry" />
        </mxCell>
        <mxCell id="9hIp2UkibbLVLMk4ZTwH-39" style="edgeStyle=orthogonalEdgeStyle;rounded=0;orthogonalLoop=1;jettySize=auto;html=1;exitX=0;exitY=0.5;exitDx=0;exitDy=0;entryX=0;entryY=0.5;entryDx=0;entryDy=0;" edge="1" parent="1" source="9hIp2UkibbLVLMk4ZTwH-4" target="9hIp2UkibbLVLMk4ZTwH-25">
          <mxGeometry relative="1" as="geometry" />
        </mxCell>
        <mxCell id="9hIp2UkibbLVLMk4ZTwH-4" value="Print" style="rounded=0;whiteSpace=wrap;html=1;" vertex="1" parent="1">
          <mxGeometry x="470" y="330" width="120" height="60" as="geometry" />
        </mxCell>
        <mxCell id="9hIp2UkibbLVLMk4ZTwH-40" style="edgeStyle=orthogonalEdgeStyle;rounded=0;orthogonalLoop=1;jettySize=auto;html=1;exitX=1;exitY=0.5;exitDx=0;exitDy=0;entryX=1;entryY=0.5;entryDx=0;entryDy=0;" edge="1" parent="1" source="9hIp2UkibbLVLMk4ZTwH-5" target="9hIp2UkibbLVLMk4ZTwH-27">
          <mxGeometry relative="1" as="geometry" />
        </mxCell>
        <mxCell id="9hIp2UkibbLVLMk4ZTwH-5" value="Master Data" style="rounded=0;whiteSpace=wrap;html=1;" vertex="1" parent="1">
          <mxGeometry x="640" y="330" width="120" height="60" as="geometry" />
        </mxCell>
        <mxCell id="9hIp2UkibbLVLMk4ZTwH-35" style="edgeStyle=orthogonalEdgeStyle;rounded=0;orthogonalLoop=1;jettySize=auto;html=1;exitX=1;exitY=0.5;exitDx=0;exitDy=0;entryX=1;entryY=0.5;entryDx=0;entryDy=0;" edge="1" parent="1" source="9hIp2UkibbLVLMk4ZTwH-6" target="9hIp2UkibbLVLMk4ZTwH-17">
          <mxGeometry relative="1" as="geometry" />
        </mxCell>
        <mxCell id="9hIp2UkibbLVLMk4ZTwH-6" value="Tools Data" style="rounded=0;whiteSpace=wrap;html=1;" vertex="1" parent="1">
          <mxGeometry x="220" y="330" width="120" height="60" as="geometry" />
        </mxCell>
        <mxCell id="9hIp2UkibbLVLMk4ZTwH-32" style="edgeStyle=orthogonalEdgeStyle;rounded=0;orthogonalLoop=1;jettySize=auto;html=1;exitX=0;exitY=0.5;exitDx=0;exitDy=0;entryX=0;entryY=0.5;entryDx=0;entryDy=0;" edge="1" parent="1" source="9hIp2UkibbLVLMk4ZTwH-7" target="9hIp2UkibbLVLMk4ZTwH-13">
          <mxGeometry relative="1" as="geometry" />
        </mxCell>
        <mxCell id="9hIp2UkibbLVLMk4ZTwH-7" value="Hangar Tools Search" style="rounded=0;whiteSpace=wrap;html=1;" vertex="1" parent="1">
          <mxGeometry x="10" y="330" width="120" height="60" as="geometry" />
        </mxCell>
        <mxCell id="9hIp2UkibbLVLMk4ZTwH-33" style="edgeStyle=orthogonalEdgeStyle;rounded=0;orthogonalLoop=1;jettySize=auto;html=1;exitX=1;exitY=0.5;exitDx=0;exitDy=0;entryX=1;entryY=0.5;entryDx=0;entryDy=0;" edge="1" parent="1" source="9hIp2UkibbLVLMk4ZTwH-13" target="9hIp2UkibbLVLMk4ZTwH-14">
          <mxGeometry relative="1" as="geometry" />
        </mxCell>
        <mxCell id="9hIp2UkibbLVLMk4ZTwH-13" value="Search Result" style="rounded=0;whiteSpace=wrap;html=1;" vertex="1" parent="1">
          <mxGeometry x="10" y="420" width="120" height="60" as="geometry" />
        </mxCell>
        <mxCell id="9hIp2UkibbLVLMk4ZTwH-14" value="Detail Tools" style="rounded=0;whiteSpace=wrap;html=1;" vertex="1" parent="1">
          <mxGeometry x="10" y="510" width="120" height="60" as="geometry" />
        </mxCell>
        <mxCell id="9hIp2UkibbLVLMk4ZTwH-36" style="edgeStyle=orthogonalEdgeStyle;rounded=0;orthogonalLoop=1;jettySize=auto;html=1;exitX=0;exitY=0.5;exitDx=0;exitDy=0;entryX=0;entryY=0.5;entryDx=0;entryDy=0;" edge="1" parent="1" source="9hIp2UkibbLVLMk4ZTwH-17" target="9hIp2UkibbLVLMk4ZTwH-18">
          <mxGeometry relative="1" as="geometry" />
        </mxCell>
        <mxCell id="9hIp2UkibbLVLMk4ZTwH-17" value="Welcome Guide" style="rounded=0;whiteSpace=wrap;html=1;" vertex="1" parent="1">
          <mxGeometry x="220" y="420" width="120" height="60" as="geometry" />
        </mxCell>
        <mxCell id="9hIp2UkibbLVLMk4ZTwH-37" style="edgeStyle=orthogonalEdgeStyle;rounded=0;orthogonalLoop=1;jettySize=auto;html=1;exitX=1;exitY=0.5;exitDx=0;exitDy=0;entryX=1;entryY=0.5;entryDx=0;entryDy=0;" edge="1" parent="1" source="9hIp2UkibbLVLMk4ZTwH-18" target="9hIp2UkibbLVLMk4ZTwH-19">
          <mxGeometry relative="1" as="geometry" />
        </mxCell>
        <mxCell id="9hIp2UkibbLVLMk4ZTwH-18" value="Edit Personnel Number" style="rounded=0;whiteSpace=wrap;html=1;" vertex="1" parent="1">
          <mxGeometry x="220" y="510" width="120" height="60" as="geometry" />
        </mxCell>
        <mxCell id="9hIp2UkibbLVLMk4ZTwH-38" style="edgeStyle=orthogonalEdgeStyle;rounded=0;orthogonalLoop=1;jettySize=auto;html=1;exitX=0;exitY=0.5;exitDx=0;exitDy=0;entryX=0;entryY=0.5;entryDx=0;entryDy=0;" edge="1" parent="1" source="9hIp2UkibbLVLMk4ZTwH-19" target="9hIp2UkibbLVLMk4ZTwH-20">
          <mxGeometry relative="1" as="geometry" />
        </mxCell>
        <mxCell id="9hIp2UkibbLVLMk4ZTwH-19" value="Tools QR Code" style="rounded=0;whiteSpace=wrap;html=1;" vertex="1" parent="1">
          <mxGeometry x="220" y="600" width="120" height="60" as="geometry" />
        </mxCell>
        <mxCell id="9hIp2UkibbLVLMk4ZTwH-20" value="Transaction History" style="rounded=0;whiteSpace=wrap;html=1;" vertex="1" parent="1">
          <mxGeometry x="220" y="690" width="120" height="60" as="geometry" />
        </mxCell>
        <mxCell id="9hIp2UkibbLVLMk4ZTwH-25" value="Tools &amp;amp; Equipment Borrowing Letter" style="rounded=0;whiteSpace=wrap;html=1;" vertex="1" parent="1">
          <mxGeometry x="470" y="420" width="120" height="60" as="geometry" />
        </mxCell>
        <mxCell id="9hIp2UkibbLVLMk4ZTwH-41" style="edgeStyle=orthogonalEdgeStyle;rounded=0;orthogonalLoop=1;jettySize=auto;html=1;exitX=0;exitY=0.5;exitDx=0;exitDy=0;entryX=0;entryY=0.5;entryDx=0;entryDy=0;" edge="1" parent="1" source="9hIp2UkibbLVLMk4ZTwH-27" target="9hIp2UkibbLVLMk4ZTwH-28">
          <mxGeometry relative="1" as="geometry" />
        </mxCell>
        <mxCell id="9hIp2UkibbLVLMk4ZTwH-27" value="Search Result" style="rounded=0;whiteSpace=wrap;html=1;" vertex="1" parent="1">
          <mxGeometry x="640" y="420" width="120" height="60" as="geometry" />
        </mxCell>
        <mxCell id="9hIp2UkibbLVLMk4ZTwH-42" style="edgeStyle=orthogonalEdgeStyle;rounded=0;orthogonalLoop=1;jettySize=auto;html=1;exitX=1;exitY=0.5;exitDx=0;exitDy=0;entryX=1;entryY=0.5;entryDx=0;entryDy=0;" edge="1" parent="1" source="9hIp2UkibbLVLMk4ZTwH-28" target="9hIp2UkibbLVLMk4ZTwH-29">
          <mxGeometry relative="1" as="geometry" />
        </mxCell>
        <mxCell id="9hIp2UkibbLVLMk4ZTwH-28" value="Tools Description" style="rounded=0;whiteSpace=wrap;html=1;" vertex="1" parent="1">
          <mxGeometry x="640" y="510" width="120" height="60" as="geometry" />
        </mxCell>
        <mxCell id="9hIp2UkibbLVLMk4ZTwH-43" style="edgeStyle=orthogonalEdgeStyle;rounded=0;orthogonalLoop=1;jettySize=auto;html=1;exitX=0;exitY=0.5;exitDx=0;exitDy=0;entryX=0;entryY=0.5;entryDx=0;entryDy=0;" edge="1" parent="1" source="9hIp2UkibbLVLMk4ZTwH-29" target="9hIp2UkibbLVLMk4ZTwH-30">
          <mxGeometry relative="1" as="geometry" />
        </mxCell>
        <mxCell id="9hIp2UkibbLVLMk4ZTwH-29" value="Add Tools" style="rounded=0;whiteSpace=wrap;html=1;" vertex="1" parent="1">
          <mxGeometry x="640" y="600" width="120" height="60" as="geometry" />
        </mxCell>
        <mxCell id="9hIp2UkibbLVLMk4ZTwH-30" value="Add Tool Effectivity" style="rounded=0;whiteSpace=wrap;html=1;" vertex="1" parent="1">
          <mxGeometry x="640" y="690" width="120" height="60" as="geometry" />
        </mxCell>
      </root>
    </mxGraphModel>
  </diagram>
</mxfile>
